<mxfile host="Electron" agent="Mozilla/5.0 (Windows NT 10.0; Win64; x64) AppleWebKit/537.36 (KHTML, like Gecko) draw.io/24.7.8 Chrome/128.0.6613.36 Electron/32.0.1 Safari/537.36" version="24.7.8">
  <diagram name="Page-1" id="boOZ9n1NnIkdG-0F6-Vk">
    <mxGraphModel dx="1098" dy="820" grid="1" gridSize="10" guides="1" tooltips="1" connect="1" arrows="1" fold="1" page="1" pageScale="1" pageWidth="850" pageHeight="1100" math="0" shadow="0">
      <root>
        <mxCell id="0" />
        <mxCell id="1" parent="0" />
        <mxCell id="3R9lf3MyPtodzLwBst2U-1" value="Start" style="ellipse;whiteSpace=wrap;html=1;" parent="1" vertex="1">
          <mxGeometry x="390" y="60" width="120" height="80" as="geometry" />
        </mxCell>
        <mxCell id="3R9lf3MyPtodzLwBst2U-2" value="Stop" style="ellipse;whiteSpace=wrap;html=1;" parent="1" vertex="1">
          <mxGeometry x="390" y="550" width="120" height="80" as="geometry" />
        </mxCell>
        <mxCell id="3R9lf3MyPtodzLwBst2U-9" value="Masukkan Usia" style="shape=parallelogram;perimeter=parallelogramPerimeter;whiteSpace=wrap;html=1;fixedSize=1;" parent="1" vertex="1">
          <mxGeometry x="370" y="170" width="160" height="80" as="geometry" />
        </mxCell>
        <mxCell id="3R9lf3MyPtodzLwBst2U-12" value="Anda masih remaja" style="shape=parallelogram;perimeter=parallelogramPerimeter;whiteSpace=wrap;html=1;fixedSize=1;" parent="1" vertex="1">
          <mxGeometry x="160" y="420" width="160" height="80" as="geometry" />
        </mxCell>
        <mxCell id="3R9lf3MyPtodzLwBst2U-13" value="Anda adalah orang dewasa" style="shape=parallelogram;perimeter=parallelogramPerimeter;whiteSpace=wrap;html=1;fixedSize=1;" parent="1" vertex="1">
          <mxGeometry x="370" y="420" width="160" height="80" as="geometry" />
        </mxCell>
        <mxCell id="3R9lf3MyPtodzLwBst2U-14" value="Anda adalah lansia" style="shape=parallelogram;perimeter=parallelogramPerimeter;whiteSpace=wrap;html=1;fixedSize=1;" parent="1" vertex="1">
          <mxGeometry x="565" y="420" width="160" height="80" as="geometry" />
        </mxCell>
        <mxCell id="3R9lf3MyPtodzLwBst2U-16" value="Check Usia" style="rhombus;whiteSpace=wrap;html=1;" parent="1" vertex="1">
          <mxGeometry x="410" y="290" width="80" height="80" as="geometry" />
        </mxCell>
        <mxCell id="3R9lf3MyPtodzLwBst2U-17" value="" style="endArrow=classic;html=1;rounded=0;" parent="1" source="3R9lf3MyPtodzLwBst2U-12" target="3R9lf3MyPtodzLwBst2U-2" edge="1">
          <mxGeometry width="50" height="50" relative="1" as="geometry">
            <mxPoint x="400" y="400" as="sourcePoint" />
            <mxPoint x="450" y="350" as="targetPoint" />
          </mxGeometry>
        </mxCell>
        <mxCell id="3R9lf3MyPtodzLwBst2U-18" value="" style="endArrow=classic;html=1;rounded=0;" parent="1" source="3R9lf3MyPtodzLwBst2U-13" target="3R9lf3MyPtodzLwBst2U-2" edge="1">
          <mxGeometry width="50" height="50" relative="1" as="geometry">
            <mxPoint x="400" y="400" as="sourcePoint" />
            <mxPoint x="450" y="350" as="targetPoint" />
          </mxGeometry>
        </mxCell>
        <mxCell id="3R9lf3MyPtodzLwBst2U-19" value="" style="endArrow=classic;html=1;rounded=0;" parent="1" source="3R9lf3MyPtodzLwBst2U-14" target="3R9lf3MyPtodzLwBst2U-2" edge="1">
          <mxGeometry width="50" height="50" relative="1" as="geometry">
            <mxPoint x="400" y="400" as="sourcePoint" />
            <mxPoint x="450" y="350" as="targetPoint" />
          </mxGeometry>
        </mxCell>
        <mxCell id="3R9lf3MyPtodzLwBst2U-20" value="" style="endArrow=classic;html=1;rounded=0;" parent="1" source="3R9lf3MyPtodzLwBst2U-16" target="3R9lf3MyPtodzLwBst2U-12" edge="1">
          <mxGeometry width="50" height="50" relative="1" as="geometry">
            <mxPoint x="283.33333333333326" y="343.33333333333326" as="sourcePoint" />
            <mxPoint x="450" y="350" as="targetPoint" />
          </mxGeometry>
        </mxCell>
        <mxCell id="3R9lf3MyPtodzLwBst2U-22" value="" style="endArrow=classic;html=1;rounded=0;" parent="1" source="3R9lf3MyPtodzLwBst2U-16" target="3R9lf3MyPtodzLwBst2U-13" edge="1">
          <mxGeometry width="50" height="50" relative="1" as="geometry">
            <mxPoint x="400" y="400" as="sourcePoint" />
            <mxPoint x="450" y="350" as="targetPoint" />
          </mxGeometry>
        </mxCell>
        <mxCell id="3R9lf3MyPtodzLwBst2U-24" value="" style="endArrow=classic;html=1;rounded=0;" parent="1" source="3R9lf3MyPtodzLwBst2U-16" target="3R9lf3MyPtodzLwBst2U-14" edge="1">
          <mxGeometry width="50" height="50" relative="1" as="geometry">
            <mxPoint x="603.3333333333333" y="346.66666666666674" as="sourcePoint" />
            <mxPoint x="450" y="350" as="targetPoint" />
          </mxGeometry>
        </mxCell>
        <mxCell id="3R9lf3MyPtodzLwBst2U-25" value="" style="endArrow=classic;html=1;rounded=0;" parent="1" source="3R9lf3MyPtodzLwBst2U-1" target="3R9lf3MyPtodzLwBst2U-9" edge="1">
          <mxGeometry width="50" height="50" relative="1" as="geometry">
            <mxPoint x="400" y="400" as="sourcePoint" />
            <mxPoint x="450" y="350" as="targetPoint" />
          </mxGeometry>
        </mxCell>
        <mxCell id="3R9lf3MyPtodzLwBst2U-27" value="" style="endArrow=classic;html=1;rounded=0;" parent="1" source="3R9lf3MyPtodzLwBst2U-9" target="3R9lf3MyPtodzLwBst2U-16" edge="1">
          <mxGeometry width="50" height="50" relative="1" as="geometry">
            <mxPoint x="400" y="400" as="sourcePoint" />
            <mxPoint x="450" y="350" as="targetPoint" />
          </mxGeometry>
        </mxCell>
        <mxCell id="3R9lf3MyPtodzLwBst2U-30" value="&lt;span style=&quot;color: rgb(0, 0, 0); font-family: Helvetica; font-size: 12px; font-style: normal; font-variant-ligatures: normal; font-variant-caps: normal; font-weight: 400; letter-spacing: normal; orphans: 2; text-align: center; text-indent: 0px; text-transform: none; widows: 2; word-spacing: 0px; -webkit-text-stroke-width: 0px; white-space: normal; background-color: rgb(251, 251, 251); text-decoration-thickness: initial; text-decoration-style: initial; text-decoration-color: initial; display: inline !important; float: none;&quot;&gt;Usia &amp;lt; 18&lt;/span&gt;" style="text;whiteSpace=wrap;html=1;" parent="1" vertex="1">
          <mxGeometry x="250" y="380" width="70" height="30" as="geometry" />
        </mxCell>
        <mxCell id="3R9lf3MyPtodzLwBst2U-31" value="&lt;span style=&quot;color: rgb(0, 0, 0); font-family: Helvetica; font-size: 12px; font-style: normal; font-variant-ligatures: normal; font-variant-caps: normal; font-weight: 400; letter-spacing: normal; orphans: 2; text-align: center; text-indent: 0px; text-transform: none; widows: 2; word-spacing: 0px; -webkit-text-stroke-width: 0px; white-space: normal; background-color: rgb(251, 251, 251); text-decoration-thickness: initial; text-decoration-style: initial; text-decoration-color: initial; display: inline !important; float: none;&quot;&gt;Usia &amp;gt;= 18&lt;/span&gt;&lt;div&gt;&lt;span style=&quot;color: rgb(0, 0, 0); font-family: Helvetica; font-size: 12px; font-style: normal; font-variant-ligatures: normal; font-variant-caps: normal; font-weight: 400; letter-spacing: normal; orphans: 2; text-align: center; text-indent: 0px; text-transform: none; widows: 2; word-spacing: 0px; -webkit-text-stroke-width: 0px; white-space: normal; background-color: rgb(251, 251, 251); text-decoration-thickness: initial; text-decoration-style: initial; text-decoration-color: initial; display: inline !important; float: none;&quot;&gt;Usia &amp;lt;= 60&lt;/span&gt;&lt;/div&gt;" style="text;whiteSpace=wrap;html=1;" parent="1" vertex="1">
          <mxGeometry x="460" y="370" width="70" height="30" as="geometry" />
        </mxCell>
        <mxCell id="3R9lf3MyPtodzLwBst2U-32" value="&lt;span style=&quot;color: rgb(0, 0, 0); font-family: Helvetica; font-size: 12px; font-style: normal; font-variant-ligatures: normal; font-variant-caps: normal; font-weight: 400; letter-spacing: normal; orphans: 2; text-align: center; text-indent: 0px; text-transform: none; widows: 2; word-spacing: 0px; -webkit-text-stroke-width: 0px; white-space: normal; background-color: rgb(251, 251, 251); text-decoration-thickness: initial; text-decoration-style: initial; text-decoration-color: initial; display: inline !important; float: none;&quot;&gt;Usia &amp;gt; 60&lt;/span&gt;" style="text;whiteSpace=wrap;html=1;" parent="1" vertex="1">
          <mxGeometry x="600" y="380" width="70" height="30" as="geometry" />
        </mxCell>
      </root>
    </mxGraphModel>
  </diagram>
</mxfile>
